<?xml version="1.0" encoding="UTF-8"?>
<svg id="Layer_1" data-name="Layer 1" xmlns="http://www.w3.org/2000/svg" viewBox="0 0 150 21.58">
  <defs>
    <style>
      .cls-1 {
        fill: #414042;
      }
    </style>
  </defs>
  <g>
    <path class="cls-1" d="M55.53,21.23l-1.14-2.17h-5.88l-1.16,2.17h-.87l4.42-8.35h1.11l4.4,8.35h-.87ZM51.51,13.6h-.1l-2.51,4.73h5.12l-2.5-4.73Z"/>
    <path class="cls-1" d="M57.81,21.23v-8.35h.75v7.63h6.45v.73h-7.2Z"/>
    <path class="cls-1" d="M68.41,13.6v7.63h-.75v-7.63h-3.99v-.73h8.73v.73h-3.99Z"/>
    <path class="cls-1" d="M73.75,21.23v-8.35h7.79v.73h-7.04v2.84h4.89v.73h-4.89v3.33h7.36v.73h-8.11Z"/>
    <path class="cls-1" d="M91.33,21.23l-2.62-3.43h-4.56v3.43h-.75v-8.35h6.3c.38,0,.73.06,1.04.17.31.12.58.28.8.5s.39.48.5.79.17.65.17,1.03c0,.72-.22,1.29-.65,1.71-.43.42-1.05.66-1.87.72l2.54,3.43h-.91ZM90.93,16.62c.3-.3.46-.73.46-1.29,0-1.15-.67-1.73-2.02-1.73h-5.21v3.47h5.49c.55,0,.98-.15,1.29-.45Z"/>
    <path class="cls-1" d="M101.95,20.33c-.44.36-.95.64-1.55.84-.59.2-1.24.3-1.94.3s-1.35-.1-1.94-.3c-.6-.2-1.11-.48-1.55-.84-1.03-.85-1.55-1.94-1.55-3.29s.52-2.42,1.56-3.28c.45-.37.97-.65,1.56-.85.6-.2,1.24-.3,1.92-.3s1.31.1,1.91.3c.6.2,1.12.48,1.56.85,1.04.85,1.56,1.95,1.56,3.28s-.52,2.44-1.55,3.29ZM101.33,14.25c-.37-.29-.8-.52-1.3-.68-.5-.17-1.02-.25-1.57-.25s-1.08.08-1.57.25c-.5.16-.93.39-1.3.68-.9.71-1.35,1.64-1.35,2.79,0,.55.1,1.06.3,1.51.2.46.48.85.85,1.18.37.33.81.58,1.33.75s1.1.26,1.74.26,1.22-.09,1.74-.27.96-.43,1.33-.75c.37-.32.66-.71.86-1.17.2-.46.31-.96.31-1.51,0-1.14-.45-2.07-1.36-2.79Z"/>
  </g>
  <g>
    <path class="cls-1" d="M46.96,8.69V.35h2.03v6.76h6.42v1.59h-8.45Z"/>
    <path class="cls-1" d="M67.39,4.51c0,1.24-.48,2.26-1.44,3.06-.53.44-1.15.78-1.87,1.01-.72.24-1.51.36-2.37.36s-1.64-.12-2.36-.36c-.72-.24-1.34-.58-1.87-1.01-.48-.39-.83-.85-1.07-1.36-.24-.52-.36-1.08-.36-1.7s.12-1.16.36-1.68c.24-.51.6-.96,1.08-1.35.53-.44,1.16-.78,1.88-1.02.73-.24,1.51-.36,2.35-.36s1.62.12,2.35.36c.73.24,1.35.58,1.88,1.02.96.8,1.44,1.81,1.44,3.03ZM65.3,4.51c0-.41-.08-.79-.25-1.14-.17-.34-.41-.64-.72-.88-.31-.25-.69-.44-1.13-.58-.44-.14-.94-.21-1.48-.21s-1.04.07-1.48.21c-.44.14-.82.33-1.13.58-.31.25-.55.54-.72.88-.17.34-.25.72-.25,1.14s.08.81.25,1.15c.17.34.4.64.71.89.31.25.69.44,1.12.57.44.13.93.2,1.49.2s1.05-.07,1.49-.2c.44-.13.82-.32,1.13-.57.31-.25.55-.54.72-.89.17-.35.25-.73.25-1.15Z"/>
    <path class="cls-1" d="M76.32.65c.62.2,1.15.49,1.59.86.44.37.77.82,1.01,1.35.23.53.35,1.11.35,1.75,0,1.23-.5,2.24-1.49,3.02-.42.34-.92.6-1.48.78-.57.18-1.17.28-1.8.28h-5.88V.35h5.6c.78,0,1.48.1,2.1.3ZM75.62,6.82c.4-.19.74-.46,1-.79.34-.44.52-.92.52-1.45,0-.38-.07-.73-.21-1.05-.14-.32-.33-.6-.58-.84-.25-.24-.54-.42-.88-.55-.34-.13-.72-.2-1.12-.2h-3.7v5.17h3.71c.44,0,.86-.1,1.26-.29Z"/>
    <path class="cls-1" d="M88.56,8.69v-3.59h-6.03v3.59h-2.03V.36h2.03v3.04h6.03V.36h2.03v8.33h-2.03Z"/>
    <path class="cls-1" d="M100.96,8.7l-.96-1.8h-5.35l-.96,1.8h-2.05L96.09.35h2.5l4.43,8.35h-2.05ZM97.32,1.88l-1.83,3.43h3.67l-1.83-3.43Z"/>
  </g>
</svg>